<svg width="30" height="30" viewBox="0 0 30 30" fill="none" xmlns="http://www.w3.org/2000/svg">
<circle cx="15" cy="15" r="15" fill="#A9A9A9"/>
<path d="M14.9032 7.95551C10.1475 11.1367 8.16703 17.4871 11.0257 21.9966L14.9032 7.95551Z" fill="black"/>
<path d="M19.2774 7.16342C15.6767 6.58611 12.2559 8.94782 12.7872 13.0011C18.4782 12.8759 18.8866 11.9918 19.2774 7.16342Z" fill="black"/>
<path d="M12.7165 13.0783V13.0097C12.4662 11.1365 13.0414 9.52161 14.3325 8.37507C14.9924 7.8203 15.7848 7.41582 16.646 7.19423C17.5071 6.97264 18.4128 6.94014 19.2901 7.09935H19.3604V7.16394C19.176 9.44894 18.9872 11.0113 18.0826 11.8914C17.178 12.7715 15.4478 13.0137 12.8131 13.0702L12.7165 13.0783ZM18.188 7.14779C16.7994 7.13189 15.4576 7.60911 14.4422 8.48004C13.2039 9.56198 12.655 11.1365 12.857 12.9289C18.3153 12.7997 18.8027 12.0044 19.1935 7.2245C18.8613 7.17309 18.5249 7.14743 18.188 7.14779Z" fill="black"/>
<path d="M17.7538 10.7649C14.1047 10.6518 11.0704 13.4213 12.2165 17.3736C17.8197 16.5299 18.0875 15.6013 17.7538 10.7649Z" fill="black"/>
<path d="M12.1431 17.4546V17.39C11.603 15.5773 11.9279 13.8696 13.0389 12.5939C13.6084 11.9588 14.3325 11.4558 15.1525 11.1255C15.9725 10.7952 16.8656 10.6469 17.7594 10.6924H17.8297V10.757C17.9878 13.042 18.0361 14.6165 17.272 15.6015C16.5079 16.5866 14.8217 17.0509 12.2177 17.4425L12.1431 17.4546ZM17.5311 10.8378C16.6944 10.8186 15.864 10.9752 15.103 11.2956C14.3421 11.616 13.6707 12.0918 13.1399 12.6868C12.0772 13.8979 11.7566 15.545 12.2397 17.2891C17.6233 16.4817 17.9878 15.6217 17.6585 10.8297L17.5311 10.8378Z" fill="black"/>
<path d="M16.6541 15.3111C13.0006 15.1981 9.96626 17.9675 11.0992 21.9199C16.7155 21.0761 16.9878 20.1476 16.6541 15.3111Z" fill="black"/>
<path d="M11.0425 21.9998V21.9352C10.5024 20.1185 10.8273 18.4027 11.9383 17.1391C12.5078 16.5041 13.2318 16.0011 14.0519 15.6708C14.8719 15.3405 15.765 15.1921 16.6589 15.2377H16.7291V15.3023C16.8872 17.5872 16.9311 19.1617 16.167 20.1468C15.403 21.1318 13.7168 21.588 11.1084 21.9796L11.0425 21.9998ZM16.4305 15.383C15.5938 15.3639 14.7634 15.5205 14.0024 15.8409C13.2415 16.1613 12.5701 16.637 12.0393 17.232C10.9722 18.4431 10.6561 20.0903 11.1347 21.8343C16.5228 21.0269 16.8828 20.167 16.5579 15.3749L16.4305 15.383Z" fill="black"/>
<path d="M18.9032 7.50372C15.7283 6.97889 12.6808 9.07415 13.1507 12.6672C18.1962 12.5541 18.5562 11.7709 18.9032 7.50372Z" fill="white"/>
<path d="M12.7984 13.0376L12.7589 12.7106C12.6189 11.9233 12.6854 11.1165 12.9527 10.3575C13.22 9.59849 13.6805 8.90906 14.2958 8.34651C14.9172 7.8212 15.6643 7.43782 16.4768 7.2274C17.2893 7.01699 18.1443 6.98546 18.9725 7.13538L19.3238 7.1919L19.2974 7.50276C18.9329 12.0082 18.4192 12.9044 13.1497 13.0175L12.7984 13.0376ZM17.923 7.77728C16.7835 7.76937 15.6838 8.16221 14.8491 8.87538C14.3676 9.3191 13.9996 9.8558 13.7717 10.4466C13.5438 11.0373 13.4619 11.6673 13.5318 12.2908C17.8879 12.1616 18.1952 11.4551 18.5026 7.8015C18.3094 7.78536 18.1162 7.77728 17.923 7.77728Z" fill="black"/>
<path d="M17.5909 11.1364C14.3546 11.0395 11.6628 13.4941 12.6552 16.9983C17.6436 16.2474 17.8852 15.4278 17.5909 11.1364Z" fill="white"/>
<path d="M12.3738 17.4101L12.2816 17.0872C12.0267 16.3249 11.9734 15.5177 12.1262 14.7327C12.2789 13.9476 12.6333 13.2075 13.1599 12.5737C13.6965 11.9738 14.3792 11.4986 15.1528 11.1865C15.9264 10.8744 16.7691 10.7342 17.6126 10.7772H17.9726L17.9946 11.1082C18.3064 15.6136 17.9156 16.5664 12.7251 17.3455L12.3738 17.4101ZM17.2042 11.5039C16.5435 11.5129 15.893 11.654 15.2976 11.9176C14.7024 12.1811 14.1766 12.5607 13.7571 13.0299C13.3446 13.5301 13.0585 14.1084 12.9195 14.7229C12.7805 15.3374 12.7921 15.9727 12.9535 16.5825C17.2613 15.9003 17.4589 15.1736 17.2174 11.5039H17.2042Z" fill="black"/>
<path d="M16.312 15.6824C13.0933 15.5775 10.3839 18.036 11.3851 21.5403C16.3647 20.7894 16.6062 19.9698 16.312 15.6824Z" fill="white"/>
<path d="M11.0955 21.9519L11.0033 21.633C10.7484 20.8707 10.6951 20.0635 10.8479 19.2785C11.0006 18.4934 11.355 17.7533 11.8816 17.1195C12.4177 16.5192 13.1004 16.0435 13.8741 15.7314C14.6478 15.4192 15.4907 15.2793 16.3343 15.323H16.6899L16.7163 15.654C17.0237 20.1594 16.6372 21.1122 11.4468 21.8914L11.0955 21.9519ZM15.9259 16.0456C15.2652 16.0546 14.6146 16.1958 14.0193 16.4593C13.4241 16.7228 12.8984 17.1024 12.4788 17.5717C12.0663 18.0718 11.7802 18.6501 11.6412 19.2647C11.5022 19.8792 11.5138 20.5145 11.6752 21.1243C15.9786 20.442 16.1674 19.7073 15.9391 16.0456H15.9259Z" fill="black"/>
</svg>
